<?xml version="1.0" standalone="no"?><!DOCTYPE svg PUBLIC "-//W3C//DTD SVG 1.1//EN" "http://www.w3.org/Graphics/SVG/1.1/DTD/svg11.dtd"><svg t="1554294307406" class="icon" style="" viewBox="0 0 1024 1024" version="1.1" xmlns="http://www.w3.org/2000/svg" p-id="61289" xmlns:xlink="http://www.w3.org/1999/xlink" width="16" height="16"><defs><style type="text/css"></style></defs><path d="M761.856 204.8c-6.144-6.144-16.384-10.24-26.624-10.24-20.48 0-38.912 18.432-38.912 38.912 0 18.432 10.24 26.624 10.24 26.624 73.728 57.344 122.88 147.456 122.88 249.856 0 174.08-139.264 315.392-311.296 315.392-172.032 0-311.296-141.312-311.296-315.392 0-102.4 49.152-192.512 122.88-249.856 6.144-6.144 12.288-16.384 12.288-26.624 0-22.528-16.384-38.912-38.912-38.912-16.384 0-26.624 10.24-26.624 10.24-88.064 71.68-145.408 180.224-145.408 305.152 0 217.088 174.08 393.216 389.12 393.216s389.12-176.128 389.12-393.216c-2.048-124.928-59.392-233.472-147.456-305.152zM518.144 552.96c20.48 0 38.912-18.432 38.912-38.912V163.84c0-22.528-16.384-38.912-38.912-38.912s-38.912 16.384-38.912 38.912v350.208c0 20.48 18.432 38.912 38.912 38.912z" fill="#00ffc8" p-id="61290" data-spm-anchor-id="a313x.7781069.0.i41" class="selected"></path></svg>